<svg width="165" height="27" viewBox="0 0 165 27" fill="none" xmlns="http://www.w3.org/2000/svg">
<path d="M0.957031 26.2232V20.675H4.40982V6.69257H0.957031V0.762207H18.3791V6.69257H14.9263V20.675H18.3791V26.2232H0.957031Z" fill="#7A8597"/>
<path d="M35.0353 26.2231V20.6749H37.3283V14.9291C37.3283 13.2027 36.1818 12.4383 34.4554 12.4383C32.5445 12.4383 31.0158 13.7825 30.8181 15.6934V20.6749H33.322V26.2231H19.9062V20.6749H22.1993V12.4383H19.9062V6.89014H30.6336V10.7251L31.2135 10.1452C32.9399 8.03667 35.8128 6.89014 38.4881 7.08782C42.7052 7.08782 46.1448 8.81421 46.1448 13.4004V20.6749H48.4379V26.2231H35.0353Z" fill="#7A8597"/>
<path d="M70.6467 14.9292L63.1744 15.6936C63.1744 13.585 62.5946 11.4765 60.117 11.4765C56.8619 11.4765 56.6642 14.1517 56.6642 16.6425C56.6642 19.3177 56.8619 22.0061 60.117 22.0061C61.6457 22.2038 63.1744 21.0441 63.3721 19.3309V18.9487H70.8444V19.5286C69.6978 25.6566 64.1496 26.6055 60.3147 26.6055C54.1866 26.6055 48.0586 23.548 48.0586 16.6556C48.0586 9.76324 54.1866 6.70581 60.3147 6.70581C60.117 6.89031 69.8823 6.31045 70.6467 14.9292Z" fill="#7A8597"/>
<path d="M76.3785 23.1657C76.3785 24.8525 75.008 26.2231 73.3211 26.2231C71.6342 26.2231 70.2637 24.8525 70.2637 23.1657C70.2637 21.4788 71.6342 20.1083 73.3211 20.1083C74.9948 20.0951 76.3654 21.4393 76.3785 23.113C76.3917 23.113 76.3917 23.1393 76.3785 23.1657Z" fill="#7A8597"/>
<path d="M112.385 0.762207C105.983 0.762207 102.363 5.03777 102.363 13.4192C102.363 21.8007 105.983 26.0649 112.385 26.0649C118.787 26.0649 122.406 21.7894 122.406 13.4079C122.406 5.02646 118.64 0.762207 112.385 0.762207ZM112.385 20.975C110.089 20.975 109.591 18.6789 109.591 13.4192C109.591 8.15961 110.089 5.86347 112.385 5.86347C114.681 5.86347 115.179 8.15961 115.179 13.4192C115.179 18.6789 114.692 20.975 112.385 20.975Z" fill="#7A8597"/>
<path d="M133.582 0.762207C127.169 0.762207 123.561 5.03777 123.561 13.4192C123.561 21.8007 127.18 26.0649 133.582 26.0649C139.984 26.0649 143.604 21.7894 143.604 13.4079C143.604 5.02646 139.826 0.762207 133.582 0.762207ZM133.582 20.975C131.286 20.975 130.788 18.6789 130.788 13.4192C130.788 8.15961 131.286 5.86347 133.582 5.86347C135.878 5.86347 136.376 8.15961 136.376 13.4192C136.376 18.6789 135.89 20.975 133.582 20.975Z" fill="#7A8597"/>
<path d="M154.779 0.762207C148.366 0.762207 144.758 5.03777 144.758 13.4192C144.758 21.8007 148.377 26.0649 154.779 26.0649C161.181 26.0649 164.801 21.7894 164.801 13.4079C164.801 5.02646 161.023 0.762207 154.779 0.762207ZM154.779 20.975C152.483 20.975 151.986 18.6789 151.986 13.4192C151.986 8.15961 152.483 5.86347 154.779 5.86347C157.076 5.86347 157.573 8.15961 157.573 13.4192C157.573 18.6789 157.076 20.975 154.779 20.975Z" fill="#7A8597"/>
<path d="M99.4133 10.942C97.7732 9.62989 95.7938 8.80419 93.6673 8.97385C92.0272 8.97385 90.2175 9.47154 89.0637 10.6139L89.5614 6.6664H99.911V0.92041H84.7882L83.1481 12.4237L87.582 14.7198C88.7357 13.7358 90.0478 13.0797 91.5295 13.0797C92.3552 13.0797 93.0113 13.4078 93.6673 13.9055C94.493 14.7312 94.821 15.8736 94.821 17.0273C94.821 17.525 94.821 18.0114 94.6514 18.3394C94.493 19.8211 93.1696 20.8052 91.6992 20.6355C88.9054 20.6355 89.075 17.1856 89.7311 15.8736L82.6504 19.6514C83.1481 24.0854 87.7403 26.2231 91.5182 26.2231C94.1424 26.2231 96.6082 25.3974 98.4179 23.7573C99.074 23.1013 99.73 22.4453 100.228 21.4612C101.053 20.1491 101.381 18.509 101.381 17.0273C101.709 14.7312 100.884 12.5934 99.4133 10.942Z" fill="#7A8597"/>
</svg>
