<svg width="114" height="50" viewBox="0 0 114 50" fill="none" xmlns="http://www.w3.org/2000/svg">
<path d="M113.889 0.0717773H12.9961V49.0718H113.889V0.0717773Z" fill="white"/>
<path d="M26.1031 34.6394V42.6082H23.5566V22.9348H30.3117C32.03 22.9348 33.4885 23.5025 34.6873 24.6378C35.2637 25.1699 35.7235 25.8142 36.0379 26.5305C36.3523 27.2468 36.5145 28.0197 36.5145 28.8009C36.5145 29.5822 36.3523 30.3551 36.0379 31.0713C35.7235 31.7876 35.2637 32.4319 34.6873 32.964C33.506 34.0809 32.0475 34.6394 30.3117 34.6394H26.1031ZM26.1031 25.3528V32.2215H30.3674C30.8356 32.2353 31.3017 32.152 31.7356 31.9768C32.1696 31.8016 32.562 31.5385 32.8876 31.2043C33.3658 30.7167 33.6879 30.0995 33.8133 29.4306C33.9387 28.7617 33.8618 28.0709 33.5924 27.4452C33.3229 26.8196 32.8729 26.287 32.299 25.9147C31.7251 25.5423 31.053 25.3468 30.3674 25.3528H26.1031Z" fill="#7A8597"/>
<path d="M43.3281 28.7126C45.2112 28.7126 46.6971 29.2118 47.7856 30.21C48.874 31.2083 49.4188 32.5774 49.4198 34.3172V42.6158H46.9908V40.7394H46.8795C45.8282 42.2736 44.4253 43.0408 42.671 43.0408C41.1764 43.0408 39.9255 42.6014 38.9185 41.7229C38.4356 41.3204 38.0493 40.8161 37.7874 40.2469C37.5256 39.6776 37.3949 39.0576 37.4048 38.4319C37.4048 37.0389 37.9357 35.9307 38.9973 35.1073C40.059 34.2839 41.4758 33.8717 43.2477 33.8707C44.7618 33.8707 46.008 34.1453 46.9862 34.6946V34.1177C46.9894 33.6902 46.8965 33.2673 46.7144 32.8799C46.5323 32.4924 46.2654 32.1501 45.9333 31.8777C45.2579 31.2739 44.3778 30.9452 43.4688 30.9572C42.0473 30.9572 40.9212 31.5525 40.0905 32.743L37.8486 31.3423C39.0834 29.5892 40.9099 28.7126 43.3281 28.7126ZM40.0332 38.4856C40.0311 38.8075 40.1066 39.1251 40.2535 39.412C40.4003 39.699 40.6143 39.9468 40.8774 40.1349C41.4405 40.5751 42.1398 40.8082 42.8565 40.7946C43.9274 40.7946 44.883 40.4009 45.723 39.6133C46.5631 38.8257 46.9857 37.9026 46.9908 36.844C46.1961 36.2211 45.0886 35.9097 43.6682 35.9097C42.6375 35.9097 41.7742 36.1567 41.0784 36.6507C40.3827 37.1447 40.0343 37.7564 40.0332 38.4856Z" fill="#7A8597"/>
<path d="M52.2988 29.1438H54.7355V31.3423H54.8469C55.6024 29.6209 57.1624 28.7602 59.527 28.7602L60.0527 28.8139V31.4528L58.9163 31.3423C57.735 31.3423 56.7615 31.7044 55.9956 32.4285C55.2298 33.1527 54.8469 34.0732 54.8469 35.1901V42.6096H52.2988V29.1438ZM68.1931 42.8275C67.0861 42.8275 66.1676 42.4889 65.4379 41.8118C64.7081 41.1347 64.3344 40.1912 64.3169 38.9812V31.4528H61.9359V29.1438H64.3169V25.0305H66.8634V29.1514H70.183V31.4604H66.8588V38.165C66.8588 39.063 67.0345 39.6716 67.386 39.9907C67.704 40.2997 68.1314 40.4726 68.5765 40.4725C68.777 40.4727 68.9768 40.4495 69.1718 40.4034C69.3597 40.3593 69.5429 40.2976 69.7191 40.2193L70.5216 42.4716C69.772 42.7229 68.9841 42.8433 68.1931 42.8275Z" fill="#7A8597"/>
<path d="M72.7617 29.1438H75.1984V31.014H75.3082C75.7406 30.3126 76.3588 29.7426 77.0955 29.3663C77.8593 28.9361 78.722 28.7089 79.6003 28.7065C81.2629 28.7065 82.5415 29.1781 83.4362 30.1211C84.3309 31.0641 84.7783 32.4061 84.7783 34.1469V42.6097H82.2318V34.3095C82.1761 32.1125 81.0593 31.014 78.8813 31.014C77.866 31.014 77.0167 31.4231 76.3333 32.2414C75.6503 33.0596 75.2865 34.0942 75.3082 35.1564V42.6035H72.7617V29.1438Z" fill="#7A8597"/>
<path d="M93.8605 43.0469C91.8681 43.0469 90.2256 42.3693 88.933 41.0141C87.6404 39.6588 86.9941 37.9461 86.9941 35.876C86.9941 33.8242 87.6219 32.1161 88.8773 30.7517C90.1328 29.3872 91.7387 28.7076 93.6951 28.7127C95.7061 28.7127 97.3074 29.3581 98.4989 30.6489C99.6905 31.9397 100.286 33.7485 100.285 36.0754L100.257 36.3516H89.5886C89.6257 37.669 90.0689 38.7311 90.9182 39.5381C91.3198 39.93 91.7959 40.2387 92.3188 40.4462C92.8417 40.6538 93.401 40.7561 93.9641 40.7471C95.5886 40.7471 96.8621 39.9411 97.7846 38.3292L100.056 39.4277C99.477 40.5327 98.5996 41.456 97.5218 42.0942C96.4124 42.7386 95.1459 43.0682 93.8605 43.0469ZM89.7911 34.2543H97.5712C97.5439 33.8114 97.4283 33.3784 97.2311 32.9802C97.0339 32.582 96.7591 32.2266 96.4225 31.9345C95.7298 31.3209 94.8021 31.014 93.6394 31.014C92.7341 30.9963 91.8538 31.3091 91.1656 31.8931C90.4561 32.5071 89.9726 33.3377 89.7911 34.2543Z" fill="#7A8597"/>
<path d="M105.157 42.608H102.609V29.1437H105.048V31.3422H105.157C105.415 30.6263 105.946 30.0172 106.75 29.515C107.554 29.0128 108.343 28.7612 109.117 28.7601C109.761 28.7423 110.402 28.8545 111 29.09L110.227 31.534C109.912 31.4062 109.413 31.3422 108.732 31.3422C107.771 31.3422 106.936 31.7268 106.226 32.496C105.532 33.2223 105.149 34.1877 105.159 35.1885L105.157 42.608Z" fill="#7A8597"/>
<path d="M29.3288 11.4388V13.154H33.4663C33.3333 14.2372 32.8808 15.08 32.1088 15.6824C31.3553 16.2767 30.4276 16.5733 29.3258 16.5723C28.7239 16.5845 28.126 16.4722 27.5702 16.2427C27.0144 16.0132 26.5129 15.6714 26.0974 15.2391C25.2551 14.3701 24.7846 13.2113 24.7846 12.0057C24.7846 10.8 25.2551 9.64121 26.0974 8.7723C26.5125 8.33953 27.014 7.99743 27.5699 7.76786C28.1258 7.53829 28.7238 7.42631 29.3258 7.43906C30.4873 7.42631 31.6074 7.86713 32.4443 8.66644L33.6642 7.45594C33.0918 6.89767 32.4139 6.45723 31.6693 6.15996C30.9247 5.86269 30.1283 5.71446 29.3258 5.7238C28.199 5.72351 27.0922 6.01885 26.1175 6.5799C25.1346 7.12685 24.3185 7.92662 23.755 8.89504C23.1991 9.84169 22.9062 10.9177 22.9062 12.0133C22.9062 13.109 23.1991 14.185 23.755 15.1317C24.3162 16.0983 25.1332 16.8941 26.1175 17.433C27.0931 17.996 28.2018 18.292 29.3304 18.2906C31.0394 18.2906 32.4546 17.7593 33.5761 16.6966C34.6975 15.6339 35.2521 14.2387 35.2397 12.5112C35.2443 12.1511 35.2132 11.7914 35.1469 11.4372L29.3288 11.4388Z" fill="#7A8597"/>
<path d="M39.953 10.1976C39.4123 10.1838 38.8746 10.28 38.3728 10.4802C37.871 10.6805 37.4159 10.9806 37.0354 11.3621C36.6499 11.7357 36.3463 12.1843 36.1438 12.6799C35.9413 13.1755 35.8443 13.7072 35.8588 14.2418C35.8483 14.7817 35.9463 15.3182 36.1472 15.82C36.3481 16.3218 36.6478 16.7788 37.0288 17.1643C37.4098 17.5498 37.8644 17.856 38.3662 18.0651C38.8679 18.2741 39.4065 18.3818 39.9507 18.3818C40.4948 18.3818 41.0335 18.2741 41.5352 18.0651C42.0369 17.856 42.4916 17.5498 42.8726 17.1643C43.2536 16.7788 43.5533 16.3218 43.7542 15.82C43.9551 15.3182 44.0531 14.7817 44.0425 14.2418C44.0572 13.7061 43.959 13.1733 43.7543 12.6774C43.5495 12.1816 43.2427 11.7336 42.8536 11.3621C42.4757 10.9819 42.0234 10.6825 41.5246 10.4822C41.0258 10.2819 40.491 10.1851 39.953 10.1976ZM41.5795 15.9893C41.3714 16.2115 41.1194 16.3888 40.8391 16.5101C40.5589 16.6313 40.2564 16.6939 39.9507 16.6939C39.645 16.6939 39.3425 16.6313 39.0622 16.5101C38.782 16.3888 38.5299 16.2115 38.3218 15.9893C37.8768 15.5165 37.6379 14.8885 37.657 14.2418C37.644 13.9214 37.6961 13.6017 37.8103 13.3017C37.9246 13.0017 38.0985 12.7276 38.3218 12.4959C38.5313 12.2732 38.7847 12.0956 39.0662 11.9743C39.3478 11.8529 39.6515 11.7902 39.9584 11.7902C40.2654 11.7902 40.5691 11.8529 40.8506 11.9743C41.1322 12.0956 41.3855 12.2732 41.595 12.4959C41.8179 12.7279 41.9917 13.002 42.1059 13.3019C42.2201 13.6018 42.2724 13.9214 42.2598 14.2418C42.2739 14.8905 42.0295 15.5185 41.5795 15.9893Z" fill="#7A8597"/>
<path d="M64.5537 6.15186H62.7617V18.0436H64.5537V6.15186Z" fill="#7A8597"/>
<path d="M48.8777 10.1976C48.3371 10.1838 47.7993 10.28 47.2975 10.4802C46.7957 10.6805 46.3406 10.9806 45.9602 11.3621C45.5751 11.7359 45.2721 12.1847 45.0702 12.6803C44.8683 13.1758 44.7717 13.7075 44.7867 14.2418C44.7761 14.7817 44.8741 15.3182 45.075 15.82C45.2759 16.3218 45.5756 16.7788 45.9566 17.1643C46.3376 17.5498 46.7923 17.856 47.294 18.0651C47.7957 18.2741 48.3344 18.3818 48.8785 18.3818C49.4226 18.3818 49.9613 18.2741 50.463 18.0651C50.9647 17.856 51.4194 17.5498 51.8004 17.1643C52.1814 16.7788 52.4811 16.3218 52.682 15.82C52.8829 15.3182 52.9809 14.7817 52.9703 14.2418C52.9852 13.7062 52.8872 13.1735 52.6828 12.6776C52.4783 12.1818 52.1718 11.7337 51.7829 11.3621C51.4045 10.9813 50.9515 10.6816 50.4519 10.4813C49.9522 10.281 49.4165 10.1845 48.8777 10.1976ZM50.4996 15.9893C50.2915 16.2115 50.0395 16.3888 49.7592 16.5101C49.479 16.6313 49.1765 16.6939 48.8708 16.6939C48.565 16.6939 48.2626 16.6313 47.9823 16.5101C47.7021 16.3888 47.45 16.2115 47.2419 15.9893C46.7969 15.5165 46.558 14.8885 46.5771 14.2418C46.564 13.9214 46.6162 13.6017 46.7304 13.3017C46.8447 13.0017 47.0186 12.7276 47.2419 12.4959C47.4514 12.2732 47.7048 12.0956 47.9863 11.9743C48.2678 11.8529 48.5715 11.7902 48.8785 11.7902C49.1855 11.7902 49.4892 11.8529 49.7707 11.9743C50.0522 12.0956 50.3056 12.2732 50.5151 12.4959C50.738 12.7279 50.9118 13.002 51.026 13.3019C51.1402 13.6018 51.1925 13.9214 51.1799 14.2418C51.194 14.8905 50.9495 15.5185 50.4996 15.9893Z" fill="#7A8597"/>
<path d="M69.4635 16.6936C68.5677 16.6936 67.9091 16.2845 67.4875 15.4663L72.9376 13.2294L72.7536 12.7691C72.6129 12.3981 72.4231 12.0473 72.1893 11.7258C71.9646 11.417 71.6971 11.1411 71.3946 10.9065C71.0964 10.6772 70.762 10.4984 70.4051 10.3772C70.0371 10.2537 69.6509 10.192 69.2625 10.1947C68.7486 10.1838 68.2382 10.2806 67.7646 10.4786C67.2909 10.6766 66.8646 10.9714 66.5134 11.3438C65.7837 12.1201 65.4183 13.0851 65.4172 14.2389C65.4039 14.7719 65.4997 15.302 65.6987 15.7973C65.8978 16.2925 66.196 16.7425 66.5753 17.1201C66.9499 17.5012 67.3998 17.8013 67.8968 18.0016C68.3938 18.202 68.9272 18.2984 69.4635 18.2846C70.9065 18.2846 72.0404 17.6873 72.865 16.4927L71.4734 15.5721C70.9673 16.3198 70.2973 16.6936 69.4635 16.6936ZM67.8106 12.4346C68.0035 12.226 68.2372 12.0585 68.4974 11.9424C68.7577 11.8263 69.039 11.7641 69.3243 11.7596C69.6544 11.7545 69.9799 11.8366 70.2675 11.9974C70.5244 12.1328 70.726 12.3524 70.838 12.6187L67.1937 14.1192C67.1725 13.8113 67.2165 13.5023 67.3227 13.2122C67.429 12.9221 67.5952 12.6572 67.8106 12.4346Z" fill="#7A8597"/>
<path d="M59.8226 11.1014H59.7607C59.2454 10.498 58.53 10.1967 57.6147 10.1978C57.0994 10.1973 56.5897 10.3033 56.118 10.5091C55.6463 10.7149 55.223 11.0159 54.875 11.3929C54.1318 12.1614 53.7168 13.1853 53.7168 14.2504C53.7168 15.3155 54.1318 16.3394 54.875 17.1079C55.6666 17.8944 56.5829 18.2877 57.624 18.2877C58.5393 18.2877 59.2546 17.9809 59.77 17.3672H59.8319V17.7799C59.8319 19.4767 59.1062 20.3246 57.6549 20.3236C57.2098 20.33 56.7749 20.1903 56.418 19.9263C56.0562 19.6581 55.7737 19.2983 55.6001 18.8845L54.0401 19.5274C54.1898 19.8769 54.3875 20.2042 54.6276 20.5001C54.8632 20.7904 55.1415 21.0438 55.4532 21.2518C55.7704 21.4623 56.116 21.6271 56.4799 21.7412C56.8599 21.8605 57.2564 21.92 57.6549 21.9177C58.8691 21.9177 59.8185 21.5525 60.5029 20.8222C61.1873 20.092 61.5275 19.0533 61.5233 17.7062V10.4417H59.8226V11.1014ZM59.3124 16.0109C59.1208 16.2305 58.8831 16.406 58.6161 16.525C58.349 16.644 58.059 16.7036 57.7662 16.6998C57.4611 16.7043 57.1585 16.6438 56.879 16.5223C56.5995 16.4008 56.3495 16.2212 56.1459 15.9956C55.7243 15.5119 55.4936 14.8931 55.4965 14.2537C55.4993 13.6142 55.7355 12.9974 56.1614 12.5175C56.3615 12.2906 56.6083 12.1089 56.8851 11.9845C57.1619 11.8601 57.4624 11.796 57.7662 11.7964C58.0608 11.7914 58.3527 11.8523 58.6204 11.9744C58.888 12.0966 59.1245 12.277 59.3124 12.5022C59.7221 12.9964 59.9461 13.6165 59.9461 14.2565C59.9461 14.8965 59.7221 15.5167 59.3124 16.0109Z" fill="#7A8597"/>
<path d="M12.9953 0.0717773H0V49.0718H12.9953V0.0717773Z" fill="#7A8597"/>
</svg>
