<svg width="114" height="33" viewBox="0 0 114 33" fill="none" xmlns="http://www.w3.org/2000/svg">
<path d="M35.014 0.606201H29.7969V32.9526H35.014V0.606201Z" fill="#7A8597"/>
<path d="M53.1306 32.9525H58.3477V11.0403H53.1306V22.6124H53.2248C53.2248 27.4509 49.0515 27.9237 47.9135 27.9237C44.8783 27.9237 44.2151 24.9825 44.2151 23.1814V11.0403H38.998V23.3718C38.998 26.4071 40.0419 28.8734 41.5585 30.6765C42.9809 32.099 45.2569 32.9525 47.8194 32.9525C49.6226 32.9525 51.9927 32.4776 53.1306 31.1493V32.9525Z" fill="#7A8597"/>
<path d="M63.3751 32.9527H68.5922V16.2576H72.3868V11.0405H68.5922V3.26294H63.3751V11.0405H59.4863V16.2576H63.3751V32.9527Z" fill="#7A8597"/>
<path d="M84.5276 32.8584C87.4688 32.8584 90.2196 31.8146 92.3052 29.9172L93.0645 29.1579L89.4603 25.5536L88.7009 26.5012C87.5629 27.5451 86.1405 28.1141 84.5276 28.1141C80.9234 28.1141 78.2667 25.5536 78.2667 21.759C78.2667 17.9644 80.8272 15.4981 84.5276 15.4981C86.1405 15.4981 87.5629 15.9729 88.7009 17.1109L89.4603 17.774L92.8742 14.3601L92.1148 13.6008C89.933 11.7976 87.3726 10.6596 84.5256 10.6596C78.0764 10.5655 73.332 15.2136 73.332 21.7569C73.3341 27.9258 78.1726 32.8584 84.5276 32.8584Z" fill="#7A8597"/>
<path d="M100.749 20.7151C100.749 15.8766 104.353 15.4039 105.491 15.4039C108.526 15.4039 108.526 18.345 108.526 20.1461V32.9524H113.743V20.052C113.838 17.207 113.174 14.6445 111.468 12.9376C110.045 11.5151 108.148 10.6616 105.776 10.6616C103.972 10.6616 102.077 11.1365 100.653 12.4648V0.608154H95.4355V32.9545H100.653V20.7172H100.749V20.7151Z" fill="#7A8597"/>
<path d="M80.5469 21.759C80.5469 23.8466 82.2538 25.4574 84.2453 25.4574C86.333 25.4574 87.9437 23.7504 87.9437 21.759C87.9437 19.6713 86.2367 18.0605 84.2453 18.0605C82.2538 18.0605 80.5469 19.6734 80.5469 21.759Z" fill="#7A8597"/>
<path d="M15.0931 32.8584C19.2664 32.8584 23.2513 31.2455 25.9059 28.3044L26.6653 27.545L23.2513 23.9408L22.5882 24.8884C20.6909 26.7857 17.846 27.9237 15.0952 27.9237C9.21498 27.9237 5.03964 23.3697 5.03964 17.205C5.03964 10.9441 9.21289 6.48631 14.999 6.48631C17.7498 6.48631 20.3102 7.62428 22.492 9.5216L23.2513 10.2809L26.6653 6.86703L25.9059 6.10768C23.061 3.0724 19.1701 1.55371 15.0931 1.55371C6.55623 1.64784 0.201172 8.28949 0.201172 17.205C0.201172 26.1205 6.55623 32.8584 15.0931 32.8584Z" fill="#7A8597"/>
</svg>
