<svg width="66" height="65" viewBox="0 0 66 65" fill="none" xmlns="http://www.w3.org/2000/svg">
<g clip-path="url(#clip0_640_335)">
<g clip-path="url(#clip1_640_335)">
<path d="M33.4316 21.6667L25.4316 26.4062V35.8854L33.4316 40.625L41.4316 35.8854V26.4062L33.4316 21.6667ZM37.477 27.1917L33.397 29.6075L29.3516 27.2106L33.4316 24.7948L37.477 27.1917ZM28.0716 29.5804L32.029 31.9258V36.6654L28.0716 34.3227V29.5804ZM34.669 36.7656V31.98L38.7916 29.5371V34.3227L34.669 36.7656ZM9.43164 0L1.43164 4.73958V14.2187L9.43164 18.9583L17.4316 14.2187V4.73958L9.43164 0ZM13.477 5.525L9.39697 7.94083L5.35164 5.54396L9.43164 3.12812L13.477 5.525ZM4.07164 7.91104L8.02897 10.2565V14.996L4.07164 12.6587V7.91104ZM10.669 15.0962V10.3133L14.7916 7.87042V12.656L10.669 15.0962ZM9.43164 46.0417L1.43164 50.7812V60.2604L9.43164 65L17.4316 60.2604V50.7812L9.43164 46.0417ZM13.477 51.5667L9.39697 53.9825L5.35164 51.5856L9.43164 49.1698L13.477 51.5667ZM4.07164 53.9554L8.02897 56.3008V61.0404L4.07164 58.7004V53.9554ZM10.669 61.1406V56.355L14.7916 53.9121V58.6977L10.669 61.1406ZM57.4316 0L49.4316 4.73958V14.2187L57.4316 18.9583L65.4316 14.2187V4.73958L57.4316 0ZM61.477 5.525L57.397 7.94083L53.3516 5.54396L57.4316 3.12812L61.477 5.525ZM52.0716 7.91375L56.029 10.2592V14.9987L52.0716 12.656V7.91375ZM58.669 15.099V10.3133L62.7916 7.87042V12.656L58.669 15.099ZM57.4316 46.0417L49.4316 50.7812V60.2604L57.4316 65L65.4316 60.2604V50.7812L57.4316 46.0417ZM61.477 51.5667L57.397 53.9825L53.3516 51.5856L57.4316 49.1698L61.477 51.5667ZM52.0716 53.9554L56.029 56.3008V61.0404L52.0716 58.6977V53.9554ZM58.669 61.1406V56.355L62.7916 53.9121V58.6977L58.669 61.1406ZM25.4316 8.125H41.4316V10.8333H25.4316V8.125ZM25.4316 54.1667H41.4316V56.875H25.4316V54.1667ZM10.765 24.375V40.625H8.09831V24.375H10.765ZM20.8796 23.9092L15.2236 18.1648L17.109 16.25L22.765 21.9917L20.8796 23.9092ZM44.0983 22.4602L49.7543 16.7158L51.6396 18.6306L45.9836 24.375L44.0983 22.4602ZM23.1063 40.2973L17.4503 46.0417L15.565 44.1269L21.221 38.3825L23.1063 40.2973ZM46.4423 38.266L52.0983 44.0104L50.213 45.9252L44.557 40.1808L46.4423 38.266ZM58.765 24.375V40.625H56.0983V24.375H58.765Z" fill="#1E8B83"/>
</g>
</g>
<defs>
<clipPath id="clip0_640_335">
<rect width="65" height="65" fill="white" transform="translate(0.931641)"/>
</clipPath>
<clipPath id="clip1_640_335">
<rect width="64" height="65" fill="white" transform="translate(1.43164)"/>
</clipPath>
</defs>
</svg>
