<svg width="66" height="65" viewBox="0 0 66 65" fill="none" xmlns="http://www.w3.org/2000/svg">
<path d="M47.7889 55.4213C50.9536 55.4213 53.5192 52.8557 53.5192 49.691C53.5192 46.5262 50.9536 43.9607 47.7889 43.9607C44.6241 43.9607 42.0586 46.5262 42.0586 49.691C42.0586 52.8557 44.6241 55.4213 47.7889 55.4213Z" stroke="#C42929" stroke-width="4.07146" stroke-linecap="round" stroke-linejoin="round"/>
<path d="M19.1395 55.4213C22.3042 55.4213 24.8698 52.8557 24.8698 49.691C24.8698 46.5262 22.3042 43.9607 19.1395 43.9607C15.9747 43.9607 13.4092 46.5262 13.4092 49.691C13.4092 52.8557 15.9747 55.4213 19.1395 55.4213Z" stroke="#C42929" stroke-width="4.07146" stroke-linecap="round" stroke-linejoin="round"/>
<path d="M13.4089 49.6106C10.2658 49.4559 8.30895 48.9889 6.91076 47.5936C5.51257 46.1982 5.04842 44.2385 4.8937 41.0954M24.8695 49.6909H42.0603M53.5209 49.6106C56.664 49.4559 58.6209 48.9889 60.0191 47.5936C62.1163 45.4934 62.1163 42.1183 62.1163 35.3651V29.6349H48.6502C46.5156 29.6349 45.4498 29.6349 44.5874 29.3541C43.7274 29.0746 42.9458 28.5956 42.3064 27.9562C41.667 27.3168 41.188 26.5352 40.9086 25.6752C40.6278 24.8128 40.6278 23.747 40.6278 21.6125C40.6278 18.4121 40.6278 16.8133 40.2066 15.5183C39.7874 14.2283 39.0689 13.0559 38.1098 12.0968C37.1507 11.1377 35.9783 10.4192 34.6883 10C33.3933 9.57886 31.7945 9.57886 28.5942 9.57886H4.81348M4.81348 21.0394H22.0043M4.81348 29.6349H16.274" stroke="#C42929" stroke-width="4.07146" stroke-linecap="round" stroke-linejoin="round"/>
<path d="M40.6289 15.3092H45.8463C50.018 15.3092 52.1009 15.3092 53.7971 16.3235C55.4961 17.3349 56.4846 19.1714 58.4616 22.8445L62.1175 29.6349" stroke="#C42929" stroke-width="4.07146" stroke-linecap="round" stroke-linejoin="round"/>
</svg>
