<svg width="65" height="65" viewBox="0 0 65 65" fill="none" xmlns="http://www.w3.org/2000/svg">
<g clip-path="url(#clip0_640_312)">
<path d="M41.6003 54.566C41.6003 59.4395 38.7534 63.3894 33.8798 63.3894H15.6815C10.8079 63.3894 7.96099 59.4395 7.96099 54.566M43.5305 43.5367C45.9666 43.5367 47.9422 46.0059 47.9422 49.0513C47.9422 52.0968 45.9666 54.566 43.5305 54.566H6.03086C3.59476 54.566 1.61914 52.0968 1.61914 49.0513C1.61914 46.0059 3.59476 43.5367 6.03086 43.5367" stroke="#1E8B83" stroke-width="2.96526" stroke-miterlimit="10" stroke-linecap="round"/>
<path d="M6.03086 35.2647V35.2344C6.03086 27.6517 12.2348 23.684 19.8175 23.684H29.7438C37.3265 23.684 43.5305 27.6821 43.5305 35.2647V35.2344M30.4332 12.6547L31.4589 21.474M44.6334 43.5367H21.9282C21.6361 43.5368 21.3559 43.6528 21.1493 43.8593L17.4503 47.5582C17.3991 47.6095 17.3383 47.6502 17.2713 47.6779C17.2044 47.7057 17.1326 47.72 17.0602 47.72C16.9877 47.72 16.9159 47.7057 16.849 47.6779C16.782 47.6502 16.7212 47.6095 16.67 47.5582L12.971 43.8593C12.7644 43.6528 12.4842 43.5368 12.1921 43.5367H4.92793C4.05038 43.5367 3.20878 43.1881 2.58826 42.5676C1.96774 41.947 1.61914 41.1054 1.61914 40.2279C1.61914 39.3503 1.96774 38.5087 2.58826 37.8882C3.20878 37.2677 4.05038 36.9191 4.92793 36.9191H44.6334C45.5109 36.9191 46.3525 37.2677 46.9731 37.8882C47.5936 38.5087 47.9422 39.3503 47.9422 40.2279C47.9422 41.1054 47.5936 41.947 46.9731 42.5676C46.3525 43.1881 45.5109 43.5367 44.6334 43.5367Z" stroke="#1E8B83" stroke-width="2.96526" stroke-miterlimit="10" stroke-linecap="round"/>
<path d="M32.501 63.3894H51.7071C52.8201 63.3894 53.892 62.9687 54.7079 62.2116C55.5237 61.4546 56.0233 60.4171 56.1064 59.3072L61.0393 12.6547" stroke="#1E8B83" stroke-width="2.96526" stroke-miterlimit="10" stroke-linecap="round"/>
<path d="M47.9434 12.6547L50.1492 3.83122L56.6289 1.62537" stroke="#1E8B83" stroke-width="2.96526" stroke-linecap="round" stroke-linejoin="round"/>
<path d="M28.0879 12.6547H63.3816" stroke="#1E8B83" stroke-width="2.96526" stroke-miterlimit="10" stroke-linecap="round"/>
</g>
<defs>
<clipPath id="clip0_640_312">
<rect width="65" height="65" fill="white"/>
</clipPath>
</defs>
</svg>
