<svg width="65" height="65" viewBox="0 0 65 65" fill="none" xmlns="http://www.w3.org/2000/svg">
<g clip-path="url(#clip0_640_278)">
<path d="M30.3324 60.6667H34.6657C35.264 60.6667 35.749 60.1816 35.749 59.5833C35.749 58.9851 35.264 58.5 34.6657 58.5H30.3324C29.7341 58.5 29.249 58.9851 29.249 59.5833C29.249 60.1816 29.7341 60.6667 30.3324 60.6667Z" fill="#F7B41C"/>
<path d="M14.0833 16.25C14.6816 16.25 15.1667 15.7649 15.1667 15.1667V8.66667H49.8333V17.3333C49.8333 17.9316 50.3184 18.4167 50.9167 18.4167C51.5149 18.4167 52 17.9316 52 17.3333V4.33333C52 2.38333 49.4997 0 46.5833 0H18.4167C15.4267 0.00352083 13.0035 2.42667 13 5.41667V15.1667C13 15.7649 13.4851 16.25 14.0833 16.25ZM15.1667 5.41667C15.1667 3.62172 16.6217 2.16667 18.4167 2.16667H46.5833C48.4608 2.16667 49.8333 3.68333 49.8333 4.33333V6.5H15.1667V5.41667Z" fill="#F7B41C"/>
<path d="M50.9167 47.6666C50.3184 47.6666 49.8333 48.1517 49.8333 48.75V54.1666H15.1667V49.8333C15.1667 49.235 14.6816 48.75 14.0833 48.75C13.4851 48.75 13 49.235 13 49.8333V59.5833C13.0035 62.5733 15.4267 64.9964 18.4167 65H46.5833C49.5733 64.9964 51.9965 62.5733 52 59.5833V48.75C52 48.1517 51.5149 47.6666 50.9167 47.6666ZM49.8333 59.5833C49.8333 61.3782 48.3783 62.8333 46.5833 62.8333H18.4167C16.6217 62.8333 15.1667 61.3782 15.1667 59.5833V56.3333H49.8333V59.5833Z" fill="#F7B41C"/>
<path d="M30.334 3.25H28.1673C27.569 3.25 27.084 3.73506 27.084 4.33333C27.084 4.9316 27.569 5.41667 28.1673 5.41667H30.334C30.9323 5.41667 31.4173 4.9316 31.4173 4.33333C31.4173 3.73506 30.9323 3.25 30.334 3.25Z" fill="#F7B41C"/>
<path d="M36.833 3.25H34.6663C34.0681 3.25 33.583 3.73506 33.583 4.33333C33.583 4.9316 34.0681 5.41667 34.6663 5.41667H36.833C37.4313 5.41667 37.9163 4.9316 37.9163 4.33333C37.9163 3.73506 37.4313 3.25 36.833 3.25Z" fill="#F7B41C"/>
<path d="M64.7515 20.9745C64.5455 20.7265 64.2397 20.5831 63.9173 20.5834H35.482L34.9295 16.8578C34.6856 15.2683 33.3222 14.0919 31.7142 14.0834H27.084V16.25H31.7142C32.2516 16.2496 32.7081 16.6434 32.7867 17.1752L36.5718 42.7256C36.8157 44.3151 38.1791 45.4915 39.7872 45.5H42.45C43.037 47.1849 44.8787 48.0749 46.5634 47.488C47.4947 47.1635 48.2269 46.4314 48.5513 45.5H53.2833C53.8816 47.1923 55.7386 48.0792 57.4307 47.4808C59.1229 46.8824 60.0099 45.0255 59.4115 43.3334C58.8132 41.6411 56.9562 40.7542 55.2641 41.3526C54.3385 41.6798 53.6105 42.4079 53.2833 43.3334H48.5513C47.9643 41.6485 46.1226 40.7586 44.4379 41.3455C43.5066 41.6699 42.7744 42.402 42.45 43.3334H39.7872C39.2509 43.3305 38.7962 42.9384 38.7147 42.4082L38.3702 40.0834H60.6673C61.188 40.083 61.6349 39.7122 61.7312 39.2005L64.9812 21.8671C65.0413 21.5502 64.957 21.2229 64.7515 20.9745ZM56.334 43.3334C56.9323 43.3334 57.4173 43.8184 57.4173 44.4167C57.4173 45.015 56.9323 45.5 56.334 45.5C55.7357 45.5 55.2507 45.015 55.2507 44.4167C55.2507 43.8184 55.7357 43.3334 56.334 43.3334ZM45.5007 43.3334C46.0989 43.3334 46.584 43.8184 46.584 44.4167C46.584 45.015 46.0989 45.5 45.5007 45.5C44.9024 45.5 44.4173 45.015 44.4173 44.4167C44.4173 43.8184 44.9024 43.3334 45.5007 43.3334ZM59.7682 37.9167H38.0495L35.8037 22.75H62.6173L59.7682 37.9167Z" fill="#F7B41C"/>
<path d="M28.1667 32.5C28.1667 24.722 21.8614 18.4167 14.0833 18.4167C6.30527 18.4167 0 24.722 0 32.5C0 40.2781 6.30527 46.5834 14.0833 46.5834C21.8576 46.5744 28.1577 40.2743 28.1667 32.5ZM2.16667 32.5C2.16667 25.9186 7.50195 20.5834 14.0833 20.5834C20.6647 20.5834 26 25.9186 26 32.5C26 39.0814 20.6647 44.4167 14.0833 44.4167C7.5052 44.409 2.17439 39.0782 2.16667 32.5Z" fill="#F7B41C"/>
<path d="M15.1657 41.1667V39.9295C17.4787 39.3342 18.8712 36.9765 18.2759 34.6634C17.7836 32.7505 16.0577 31.4142 14.0824 31.4167C12.8857 31.4167 11.9157 30.4467 11.9157 29.25C11.9157 28.0533 12.8857 27.0833 14.0824 27.0833C15.279 27.0833 16.249 28.0533 16.249 29.25C16.249 29.8483 16.7341 30.3333 17.3324 30.3333C17.9306 30.3333 18.4157 29.8483 18.4157 29.25C18.4082 27.2801 17.0732 25.563 15.1657 25.0705V23.8333C15.1657 23.2351 14.6806 22.75 14.0824 22.75C13.4841 22.75 12.999 23.2351 12.999 23.8333V25.0705C10.686 25.6658 9.29348 28.0235 9.88877 30.3366C10.3811 32.2495 12.107 33.5858 14.0824 33.5833C15.279 33.5833 16.249 34.5533 16.249 35.75C16.249 36.9467 15.279 37.9167 14.0824 37.9167C12.8857 37.9167 11.9157 36.9467 11.9157 35.75C11.9157 35.1517 11.4306 34.6667 10.8324 34.6667C10.2341 34.6667 9.74902 35.1517 9.74902 35.75C9.75647 37.7199 11.0915 39.437 12.999 39.9295V41.1667C12.999 41.7649 13.4841 42.25 14.0824 42.25C14.6806 42.25 15.1657 41.7649 15.1657 41.1667Z" fill="#F7B41C"/>
<path d="M38.9993 26H54.166C54.7643 26 55.2493 25.5149 55.2493 24.9166C55.2493 24.3184 54.7643 23.8333 54.166 23.8333H38.9993C38.4011 23.8333 37.916 24.3184 37.916 24.9166C37.916 25.5149 38.4011 26 38.9993 26Z" fill="#F7B41C"/>
<path d="M57.4163 26H59.583C60.1813 26 60.6663 25.5149 60.6663 24.9166C60.6663 24.3184 60.1813 23.8333 59.583 23.8333H57.4163C56.8181 23.8333 56.333 24.3184 56.333 24.9166C56.333 25.5149 56.8181 26 57.4163 26Z" fill="#F7B41C"/>
</g>
<defs>
<clipPath id="clip0_640_278">
<rect width="65" height="65" fill="white"/>
</clipPath>
</defs>
</svg>
