<svg width="65" height="65" viewBox="0 0 65 65" fill="none" xmlns="http://www.w3.org/2000/svg">
<g clip-path="url(#clip0_640_326)">
<path d="M20.944 23.2027C20.1461 23.2027 19.3158 23.0065 18.5193 22.5998C18.136 22.4036 17.9839 21.9345 18.1788 21.5512C18.375 21.1678 18.8441 21.0145 19.2275 21.2107C20.7049 21.9644 22.3266 21.7058 23.1699 20.5831C23.4285 20.2388 23.917 20.1699 24.2614 20.4285C24.6057 20.6871 24.6746 21.1756 24.416 21.52C23.5909 22.6206 22.3175 23.2027 20.944 23.2027ZM65.085 30.5704V54.5796C65.085 55.5814 64.2676 56.3988 63.2645 56.404L50.8694 56.465C50.9851 56.7561 51.0448 57.0719 51.0409 57.4032V57.4292C51.0279 58.7299 50.0495 59.7785 48.7657 59.8708L37.9676 60.6452C32.2696 61.0532 27.0447 62.5424 22.181 64.0328C21.2857 64.307 20.5256 64.3226 19.7225 64.3395C19.6212 64.3421 19.5185 64.3434 19.412 64.346C19.3626 64.3473 19.3119 64.3473 19.2625 64.3473C17.2147 64.3473 15.6905 63.2648 14.4183 62.2448L6.75442 56.0999L4.79881 57.0991C4.3635 57.3213 3.86193 57.3252 3.42273 57.1082C2.98353 56.8912 2.68207 56.491 2.59371 56.0089L0.00268092 41.8155C-0.385843 39.6857 0.521146 37.6626 2.37021 36.536L14.4651 29.1683L15.6892 25.9003C15.7113 25.8418 15.7398 25.7872 15.7736 25.7379C14.9667 25.1882 14.2455 24.4852 13.6322 23.6393C13.0761 22.8714 12.5433 21.9813 12.03 20.9664C11.6714 21.0873 11.305 21.1471 10.9463 21.1471C9.60792 21.1471 8.36439 20.3518 7.8927 19.0628C7.59514 18.2507 7.64711 17.3684 8.03564 16.5783C8.38258 15.8753 8.96212 15.3231 9.68329 15.0008C9.6612 14.932 9.64041 14.8618 9.61832 14.7916C9.61312 14.776 9.60792 14.7604 9.60403 14.7436C9.54685 14.5616 9.49098 14.3797 9.4351 14.1939C9.4338 14.1874 9.4312 14.1809 9.4299 14.1744C8.50472 10.7907 8.63596 7.89956 9.81973 5.58271C10.8398 3.58682 12.6161 2.10549 14.9563 1.30116C17.2472 0.513713 19.9382 0.439646 22.3383 1.09975C24.8539 1.79103 26.7264 3.21519 27.4735 5.00578C27.8309 5.86209 28.1427 6.708 28.413 7.54612H30.0749C32.089 7.54612 33.8198 8.37515 35.0816 9.94483L35.9925 11.0779C36.3589 11.5327 36.468 12.1135 36.2939 12.671C36.1198 13.2284 35.6975 13.6417 35.1374 13.8067L29.6721 15.4115C29.6669 16.82 29.5422 18.2403 29.2953 19.6878C29.2927 19.7008 29.2901 19.7125 29.2875 19.7255C29.1407 20.3895 28.9548 21.0236 28.7352 21.6122C28.1206 23.2573 27.0603 24.6256 25.7063 25.591C25.796 25.6664 25.87 25.7613 25.9207 25.8756L27.5294 29.5542L32.0747 31.1434C32.141 31.1668 32.2047 31.1993 32.2618 31.2383L34.0693 32.4922V30.5691C34.0693 29.5633 34.888 28.7447 35.8937 28.7447H63.2606C64.2663 28.746 65.085 29.5633 65.085 30.5704ZM63.2606 30.3053H54.9898V34.1723H63.5257V30.5717C63.5257 30.4261 63.4048 30.3053 63.2606 30.3053ZM45.7237 38.1784L49.1477 35.9214C49.4076 35.7498 49.7454 35.7498 50.0053 35.9214L53.4293 38.1784V30.3053H45.7224V38.1784H45.7237ZM35.6286 30.5704V34.171H44.1645V30.3053H35.8937C35.7508 30.3053 35.6286 30.4261 35.6286 30.5704ZM26.6003 34.7038L29.3018 36.7959L30.2374 32.1544L27.4969 31.1967L26.6003 34.7038ZM28.8652 9.10671C29.2719 10.6803 29.524 12.237 29.6227 13.8015L34.6969 12.3111C34.758 12.2929 34.7866 12.2656 34.8048 12.2045C34.8243 12.1434 34.8165 12.1045 34.7762 12.0551L33.8653 10.922C32.909 9.73433 31.5978 9.10541 30.0736 9.10541H28.8652V9.10671ZM10.932 13.7547C10.932 13.756 10.9333 13.7573 10.9333 13.7586H16.179L18.8649 10.1423C20.1072 8.4687 21.9393 7.54742 24.0236 7.54742H26.7692C26.5509 6.90551 26.3067 6.25971 26.0338 5.6074C24.8422 2.7539 19.6069 1.35183 15.4631 2.77729C11.0906 4.2807 9.439 8.28159 10.932 13.7547ZM24.0236 9.10671C22.4227 9.10671 21.0713 9.78631 20.1163 11.0714L18.1217 13.7586H20.3307C21.7353 13.7586 22.9334 13.2375 23.8897 12.211L26.7822 9.10671H24.0236ZM11.3595 19.5384C10.9541 18.6132 10.5604 17.601 10.1771 16.4952C9.85481 16.6745 9.59623 16.9409 9.4351 17.2683C9.23629 17.6724 9.20901 18.1194 9.35844 18.5274C9.64561 19.3136 10.5123 19.7333 11.3595 19.5384ZM20.7179 25.5988C21.109 25.5884 21.5768 25.5663 22.068 25.4754C24.4602 25.0375 26.4067 23.3898 27.2734 21.0678C27.4657 20.5532 27.6295 19.9945 27.7594 19.4084C28.2727 16.3756 28.2246 13.4701 27.5957 10.5218L25.0306 13.2726C23.7845 14.6097 22.1589 15.3166 20.3307 15.3166H11.4258C12.4965 18.5534 13.6374 20.9859 14.8952 22.7232C16.2843 24.6399 18.353 25.6612 20.7179 25.5988ZM17.1354 26.4837L15.9984 29.5205L21.2338 35.2483C21.2727 35.2898 21.3065 35.3366 21.3338 35.386L23.7442 39.5818L24.9631 34.8117C24.9644 34.8091 24.9644 34.8065 24.9657 34.8039L26.1299 30.2468L24.4914 26.5032C24.468 26.4486 24.4511 26.3941 24.4407 26.3382C23.7858 26.6488 23.0854 26.8762 22.3499 27.0113C21.7522 27.1204 21.2104 27.1477 20.7595 27.1594C20.6763 27.162 20.5931 27.162 20.51 27.162C19.3067 27.1607 18.1723 26.9294 17.1354 26.4837ZM11.7169 32.6689L14.9628 37.187L19.0313 35.1508L14.9576 30.6938L11.7169 32.6689ZM14.7081 50.2876L11.7 43.1851C11.5324 42.7887 11.7169 42.3313 12.1145 42.1637C12.5108 41.9961 12.9682 42.1806 13.1358 42.5782L16.396 50.2772L19.5094 54.8369C19.6667 55.0669 19.9136 55.1656 20.1864 55.1045L34.068 52.0353V34.3906L31.7057 32.7521L30.5804 38.3344C30.5271 38.5981 30.3413 38.8164 30.0879 38.9113C29.9996 38.9438 29.9073 38.9607 29.8164 38.9607C29.6461 38.9607 29.4772 38.9048 29.3395 38.7969L26.1793 36.3489L24.7798 41.8259C24.7019 42.1338 24.4446 42.3625 24.1301 42.4054C24.0951 42.4106 24.06 42.4132 24.0249 42.4132C23.7481 42.4132 23.4895 42.2664 23.3492 42.0221L20.0968 36.3606L15.0667 38.8775C14.955 38.9334 14.8368 38.9594 14.7185 38.9594C14.4742 38.9594 14.2351 38.845 14.0844 38.6345L10.3811 33.4798L3.18104 37.8653C1.89592 38.6475 1.26571 40.0535 1.53599 41.5335L4.12051 55.6958L14.7081 50.2876ZM48.7176 56.4754L48.164 56.478L35.7625 56.9094C35.3648 56.925 35.0166 56.6314 34.9633 56.235C34.91 55.8374 35.166 55.4645 35.5559 55.3722L42.4882 53.7259C42.878 53.6336 43.069 53.2126 43.0574 52.8436L43.0548 52.7526C43.0457 52.4641 42.93 52.238 42.7013 52.0613C42.4726 51.8846 42.2257 51.8287 41.9438 51.8911L20.5256 56.6262C19.6264 56.825 18.7441 56.4754 18.2243 55.7153L15.454 51.6585L8.27733 55.3241L15.3942 61.0299C16.782 62.1422 17.9332 62.8282 19.373 62.788C19.4808 62.7854 19.5861 62.7828 19.6901 62.7815C20.4424 62.7659 21.0362 62.7542 21.7236 62.5424C26.6731 61.026 31.9955 59.5095 37.8558 59.0898L48.6539 58.3154C49.1217 58.2816 49.4777 57.8944 49.4816 57.4136V57.3876C49.4842 57.1199 49.3959 56.9094 49.2036 56.7223C49.0606 56.5833 48.9034 56.5027 48.7176 56.4754ZM63.5257 54.5796V35.7303H54.9898V39.626C54.9898 39.9131 54.8326 40.1769 54.5792 40.3121C54.4636 40.3744 54.3362 40.4056 54.2102 40.4056C54.0608 40.4056 53.9113 40.3627 53.7814 40.277L49.5778 37.5053L45.3742 40.277C45.1351 40.4342 44.8284 40.4485 44.5751 40.3121C44.323 40.1756 44.1645 39.9118 44.1645 39.626V35.7303H35.6286V51.6897L41.6059 50.3682C42.3375 50.2071 43.0651 50.3708 43.6564 50.8295C44.2476 51.2882 44.5868 51.9535 44.6114 52.7019L44.614 52.7929C44.6478 53.809 44.119 54.6939 43.2886 55.0877L48.472 54.907C48.5747 54.9031 48.676 54.9083 48.7748 54.9161L63.2554 54.8447C63.4022 54.8434 63.5257 54.7225 63.5257 54.5796ZM59.8964 46.3712H52.9849C52.5547 46.3712 52.2052 46.7207 52.2052 47.1509C52.2052 47.581 52.5547 47.9305 52.9849 47.9305H59.8964C60.3265 47.9305 60.6761 47.581 60.6761 47.1509C60.6761 46.7207 60.3265 46.3712 59.8964 46.3712ZM59.8964 50.259H50.2483C49.8182 50.259 49.4686 50.6086 49.4686 51.0387C49.4686 51.4688 49.8182 51.8183 50.2483 51.8183H59.8964C60.3265 51.8183 60.6761 51.4688 60.6761 51.0387C60.6761 50.6086 60.3265 50.259 59.8964 50.259Z" fill="#F7B41C"/>
</g>
<defs>
<clipPath id="clip0_640_326">
<rect width="65" height="65" fill="white"/>
</clipPath>
</defs>
</svg>
