<?xml version="1.0" encoding="utf-8"?>
<!-- Generator: Adobe Illustrator 27.8.1, SVG Export Plug-In . SVG Version: 6.00 Build 0)  -->
<svg version="1.1" id="Layer_1" xmlns="http://www.w3.org/2000/svg" xmlns:xlink="http://www.w3.org/1999/xlink" x="0px" y="0px"
	 viewBox="0 0 681.44 222.97" style="enable-background:new 0 0 681.44 222.97;" xml:space="preserve">
<style type="text/css">
	.st0{fill:#70E080;}
	.st1{font-family:'NexaLight';}
	.st2{font-size:94.5588px;}
	.st3{font-family:'NexaBold';}
	.st4{fill:#231F20;}
	.st5{fill:#51BDF4;}
	.st6{fill:#FF5757;}
	.st7{fill:#525556;}
</style>
<g>
	<g>
		<text transform="matrix(1 0 0 1 255.0753 80.374)"><tspan x="0" y="0" class="st0 st1 st2"> </tspan><tspan x="0" y="113.47" class="st0 st3 st2">Mediastic</tspan></text>
	</g>
	<text transform="matrix(1 0 0 1 252.9698 99.3525)" class="st4 st1 st2">Social</text>
	<path class="st5" d="M104.95,108.21H52.48C23.49,108.21,0,84.71,0,55.73v0C0,26.75,23.49,3.25,52.48,3.25h0
		c28.98,0,52.48,23.49,52.48,52.48V108.21z"/>
	<path class="st6" d="M131.35,98.52L131.35,98.52c-20.49-20.49-20.49-53.72,0-74.21l0,0c20.49-20.49,53.72-20.49,74.21,0l0,0
		c20.49,20.49,20.49,53.72,0,74.21l0,0C185.07,78.03,151.84,78.03,131.35,98.52z"/>
	<path class="st7" d="M122.23,213.16h52.48c28.98,0,52.48-23.49,52.48-52.48v0c0-28.98-23.49-52.48-52.48-52.48h0
		c-28.98,0-52.48,23.49-52.48,52.48V213.16z"/>
	<path class="st0" d="M55.23,220.16L55.23,220.16c28.98,0,52.48-23.49,52.48-52.48v0c0-28.98-23.49-52.48-52.48-52.48h0
		c-28.98,0-52.48,23.49-52.48,52.48v0C2.75,196.66,26.24,220.16,55.23,220.16z"/>
</g>
</svg>
